<svg width="869" height="212" viewBox="0 0 869 212" fill="none" xmlns="http://www.w3.org/2000/svg">
<g filter="url(#filter0_d_8_2)">
<path d="M368.125 156V62.875H387.75V139.75H427.688V156H368.125ZM476.75 62.875H501L526.625 125.438H527.688L553.375 62.875H577.812V156H558.5V95.375H557.812L533.625 155.562H520.562L496.625 95.25H495.812V156H476.75V62.875ZM610 156H588.875L621.062 62.875H646.375L678.5 156H657.438L650.5 134.75H616.875L610 156ZM621.875 119.375H645.5L634.062 84.125H633.312L621.875 119.375ZM767.5 62.875V156H750.438L710 97.4375H709.25V156H689.625V62.875H706.875L747.062 121.438H747.875V62.875H767.5ZM841.25 62.875H860.875V123.25C860.875 130.042 859.271 136 856.062 141.125C852.854 146.208 848.354 150.167 842.562 153C836.771 155.833 830.021 157.25 822.312 157.25C814.562 157.25 807.792 155.833 802 153C796.25 150.167 791.771 146.208 788.562 141.125C785.354 136 783.75 130.042 783.75 123.25V62.875H803.375V121.625C803.375 126.958 805.104 131.354 808.562 134.812C812.021 138.229 816.604 139.938 822.312 139.938C828.021 139.938 832.604 138.229 836.062 134.812C839.521 131.354 841.25 126.958 841.25 121.625V62.875Z" fill="white"/>
<path d="M460.5 62.875V156H440.875V62.875H460.5Z" fill="#00FF09"/>
</g>
<ellipse cx="111.475" cy="105.869" rx="108.475" ry="104.233" transform="rotate(-0.870733 111.475 105.869)" fill="#00FF09"/>
<path d="M81.9511 96.5447L78.322 6.47175C78.322 6.47175 64.8137 9.9347 53.6146 16.6202C42.4155 23.3057 34.6388 32.1109 34.6388 32.1109L41.501 186.202C56.1798 197.337 66.1538 203.021 87.04 208.313L85.0357 150.792L104.976 124.428L161.476 198.495C177.276 190.876 184.819 184.972 196.104 171.907L136.166 94.6349L187.18 30.8784C174.595 20.1918 166.82 15.3629 151.809 8.61251L84.2107 96.5104L81.9511 96.5447Z" fill="black"/>
<path d="M287.334 44.6365V105.739H288.667L339 44.6365H869V53.1364H617H365L319.334 105.099L365 166.518H617H869V175.636H370.667H339L332.311 165.136L300.667 122.373L288.667 137.728V175.636H254V44.6365L270.5 44.6365L287.334 44.6365Z" fill="white"/>
<path d="M16.3479 167.038L33.897 132.023L84.1367 166.008L125.626 144.746L175.52 155.932L218.988 116.18" stroke="black" stroke-width="2" stroke-linecap="round"/>
<path d="M18.8221 181.117L35.2578 147.205L84.3018 176.864L125.791 155.602L175.685 166.788L219.153 127.036" stroke="black" stroke-width="2" stroke-linecap="round"/>
<path d="M10.2777 65.0576L25.8476 48.5328L71.7404 78.0511L121.948 51.4157L171.338 67.0949L198.676 43.7343" stroke="black" stroke-width="2" stroke-linecap="round"/>
<path d="M10.1126 54.2013L25.6825 37.6764L71.5754 67.1947L121.783 40.5594L171.173 56.2386L198.511 32.878" stroke="black" stroke-width="2" stroke-linecap="round"/>
<path d="M3.30953 127.059L24.8644 86.6008L74.6931 123.613L119.913 100.5L174.29 112.657L214.955 73.8916" stroke="black" stroke-width="5" stroke-linecap="round"/>
<ellipse cx="178.933" cy="83.1261" rx="6.77966" ry="6.51453" transform="rotate(-0.870733 178.933 83.1261)" fill="black"/>
<ellipse cx="90.181" cy="43.2114" rx="6.77966" ry="6.51453" transform="rotate(-0.870733 90.181 43.2114)" fill="black"/>
<ellipse cx="116.835" cy="12.4017" rx="6.77966" ry="6.51453" transform="rotate(-0.870733 116.835 12.4017)" fill="black"/>
<ellipse cx="106.148" cy="201.507" rx="6.77966" ry="6.51453" transform="rotate(-0.870733 106.148 201.507)" fill="black"/>
<ellipse cx="133.032" cy="185.896" rx="6.77966" ry="6.51453" transform="rotate(-0.870733 133.032 185.896)" fill="black"/>
<ellipse cx="22.7882" cy="70.2969" rx="6.77966" ry="6.51453" transform="rotate(-0.870733 22.7882 70.2969)" fill="black"/>
<path d="M30.0259 128.716C30.0806 132.314 27.0899 135.276 23.346 135.333C19.6021 135.39 16.5228 132.52 16.4681 128.922C16.4135 125.325 19.4041 122.362 23.148 122.306C26.8919 122.249 29.9712 125.119 30.0259 128.716Z" fill="black"/>
<path d="M192.119 132.768C192.173 136.365 189.183 139.328 185.439 139.385C181.695 139.442 178.615 136.572 178.561 132.974C178.506 129.377 181.497 126.414 185.241 126.357C188.985 126.3 192.064 129.171 192.119 132.768Z" fill="black"/>
<defs>
<filter id="filter0_d_8_2" x="364.125" y="62.875" width="500.75" height="102.375" filterUnits="userSpaceOnUse" color-interpolation-filters="sRGB">
<feFlood flood-opacity="0" result="BackgroundImageFix"/>
<feColorMatrix in="SourceAlpha" type="matrix" values="0 0 0 0 0 0 0 0 0 0 0 0 0 0 0 0 0 0 127 0" result="hardAlpha"/>
<feOffset dy="4"/>
<feGaussianBlur stdDeviation="2"/>
<feComposite in2="hardAlpha" operator="out"/>
<feColorMatrix type="matrix" values="0 0 0 0 0 0 0 0 0 0 0 0 0 0 0 0 0 0 0.25 0"/>
<feBlend mode="normal" in2="BackgroundImageFix" result="effect1_dropShadow_8_2"/>
<feBlend mode="normal" in="SourceGraphic" in2="effect1_dropShadow_8_2" result="shape"/>
</filter>
</defs>
</svg>
